
        <svg xmlns="http://www.w3.org/2000/svg" xmlns:xlink="http://www.w3.org/1999/xlink" version="1.1" width="3176.470588235294" height="492.9530285607312" viewBox="0 0 3176.470588235294 492.9530285607312">
			
			<g transform="scale(8.823529411764707) translate(10, 10)">
				<defs id="SvgjsDefs2333"/><g id="SvgjsG2334" featureKey="K5GtsI-0" transform="matrix(2.456291934240167,0,0,2.456291934240167,-2.4071655567797814,-14.043842621861117)" fill="#fff"><path d="M3.62 20 l-2.64 0 l0 -13.98 l10.06 0 l0 2.54 l-7.42 0 l0 3.82 l7.02 0 l0 2.44 l-7.02 0 l0 5.18 z M19.86 5.720000000000001 c4.82 0 7.22 3.7 7.18 7.36 c-0.04 3.62 -2.26 7.24 -7.18 7.24 s-7.2 -3.54 -7.2 -7.22 s2.36 -7.38 7.2 -7.38 z M19.86 8.12 c-3.3 0 -4.66 2.66 -4.6 5.02 c0.06 2.3 1.3 4.76 4.6 4.76 s4.54 -2.48 4.58 -4.78 c0.04 -2.36 -1.28 -5 -4.58 -5 z M35.56 5.720000000000001 c4.82 0 7.22 3.7 7.18 7.36 c-0.04 3.62 -2.26 7.24 -7.18 7.24 s-7.2 -3.54 -7.2 -7.22 s2.36 -7.38 7.2 -7.38 z M35.56 8.12 c-3.3 0 -4.66 2.66 -4.6 5.02 c0.06 2.3 1.3 4.76 4.6 4.76 s4.54 -2.48 4.58 -4.78 c0.04 -2.36 -1.28 -5 -4.58 -5 z M47.480000000000004 20 l0 -11.6 l-4.44 0 l0 -2.4 l11.52 0 l0 2.4 l-4.44 0 l0 11.6 l-2.64 0 z M58.68000000000001 13.940000000000001 l0 3.6 l4.04 0 c1.08 0 2.62 -0.36 2.62 -1.68 c0 -1.26 -1.54 -1.92 -2.62 -1.92 l-4.04 0 z M58.68000000000001 8.4 l0 3.22 l4.04 0 c1.66 0 2.2 -0.7 2.2 -1.5 c0 -0.64 -0.52 -1.72 -2.2 -1.72 l-4.04 0 z M62.720000000000006 6 c2.76 0 4.82 1.24 4.82 4.06 c0 1.08 -0.52 2.12 -1.82 2.7 c1.64 0.5 2.24 2.24 2.24 3.12 c0 3.12 -2.34 4.12 -5.24 4.12 l-6.64 0 l0 -14 l6.64 0 z M80.94 20 l-1.18 -2.64 l-7.32 0 l-1.2 2.64 l-2.86 0 l6.28 -14 l2.88 0 l6.28 14 l-2.88 0 z M78.7 14.9 l-2.6 -5.96 l-2.6 5.96 l5.2 0 z M84.80000000000001 6 l2.64 0 l0 11.56 l7.2 0 l0 2.44 l-9.84 0 l0 -14 z M96.50000000000001 6 l2.64 0 l0 11.56 l7.2 0 l0 2.44 l-9.84 0 l0 -14 z M111.44000000000003 20 l0 -2.24 l2.1 0 l0 -9.36 l-2.18 0 l0 -2.4 l4.8 0 l0 11.76 l1.94 0 l0 2.24 l-6.66 0 z M121.86000000000001 11.98 l0 2.02 c0 5.08 7.04 5.08 7.04 0 l0 -2.02 c0 -5 -7.04 -5.06 -7.04 0 z M119.24000000000001 14 l0 -2.02 c0 -8.36 12.28 -8.34 12.28 0 l0 2.02 c0 8.34 -12.28 8.36 -12.28 0 z M132.74 20 l0 -2.24 l2.1 0 l0 -9.36 l-2.18 0 l0 -2.4 l4.8 0 l0 11.76 l1.94 0 l0 2.24 l-6.66 0 z"/></g>
			</g>
		</svg>
	